<svg xmlns="http://www.w3.org/2000/svg" width="158" height="18" fill="none" viewBox="0 0 158 18"><path fill="#EE4D2D" d="M90.133.47h4.905l-2.646 5.103 3.434 1.198L88.566 18l.787-7.706-3.433-1.198zM.55 10.385a5.6 5.6 0 0 1 1.485-3.863 5.3 5.3 0 0 1 1.69-1.191A5 5 0 0 1 5.76 4.9a5.1 5.1 0 0 1 2.076.43 5.3 5.3 0 0 1 1.662 1.184 5.6 5.6 0 0 1 1.113 1.737 5.74 5.74 0 0 1 0 4.265 5.37 5.37 0 0 1-2.782 2.95 4.8 4.8 0 0 1-2.035.45 4.9 4.9 0 0 1-2.036-.45 5.3 5.3 0 0 1-1.662-1.192 5.7 5.7 0 0 1-1.113-1.758 5.5 5.5 0 0 1-.434-2.132m5.25 3.53c.452.003.899-.093 1.31-.283a3.4 3.4 0 0 0 1.031-.769c.293-.325.523-.703.679-1.114.172-.44.257-.911.25-1.385.003-.9-.329-1.77-.929-2.43a3.6 3.6 0 0 0-1.052-.762A3.1 3.1 0 0 0 5.8 6.923a3.1 3.1 0 0 0-1.316.284 3.8 3.8 0 0 0-1.058.762 3.64 3.64 0 0 0-.957 2.416c-.012.473.071.945.244 1.384.154.413.384.792.679 1.115a3.6 3.6 0 0 0 1.092.755 3.1 3.1 0 0 0 1.316.283zm6.414-8.846h7.137V7.04h-5.183v2.561h5.082v1.973h-5.082v4.203h-1.954zm8.283 0h7.32V7.04H22.39v2.561h5.265v1.953H22.45v2.229h5.367v1.973h-7.32zm8.779 0h4.41a4.6 4.6 0 0 1 1.48.29c.432.164.829.413 1.166.734.333.333.592.734.76 1.177a4.4 4.4 0 0 1 .272 1.627 3.97 3.97 0 0 1-.597 2.285 3.25 3.25 0 0 1-1.636 1.28l2.328 3.33h-2.341L33 12.746h-1.838v3.047h-1.887zm2.857 5.725h1.472q.373-.028.733-.138c.215-.07.415-.18.59-.326.173-.153.31-.345.4-.56a2 2 0 0 0 .15-.817 2 2 0 0 0-.15-.81 1.7 1.7 0 0 0-.4-.575 1.7 1.7 0 0 0-.59-.36 2.5 2.5 0 0 0-.733-.145h-2.442v3.786zm5.984-3.753V5.069h8.4V7.04h-3.203v8.723h-1.927V7.04zm11.548-1.972h1.675l4.458 10.71H53.7l-.542-1.336h-5.313l-.542 1.336h-2.097zm-1.052 7.463h3.779l-1.893-4.75zm7.355 1.876 1.065-1.523c.442.372.933.68 1.459.914.48.188.992.275 1.506.256a2.44 2.44 0 0 0 1.316-.34 1 1 0 0 0 .363-.382 1.04 1.04 0 0 0 .126-.518.94.94 0 0 0-.224-.63 2.4 2.4 0 0 0-.55-.47 3.5 3.5 0 0 0-.678-.34l-.604-.228a29 29 0 0 1-1.248-.492 4.3 4.3 0 0 1-1.072-.623 3.1 3.1 0 0 1-.76-.906c-.203-.407-.3-.86-.285-1.316a2.6 2.6 0 0 1 .224-1.052 2.8 2.8 0 0 1 .678-.949c.309-.296.67-.528 1.065-.685a4.2 4.2 0 0 1 1.567-.277q.581.005 1.147.138a5 5 0 0 1 2.239 1.087l-1.018 1.475a2.4 2.4 0 0 0-.434-.27c-.183-.09-.38-.173-.59-.263a5 5 0 0 0-.679-.208 3 3 0 0 0-.678-.083 2.6 2.6 0 0 0-.767.076 1.7 1.7 0 0 0-.536.243 1.3 1.3 0 0 0-.312.332.8.8 0 0 0-.108.388.9.9 0 0 0 .142.505c.1.151.23.28.38.38q.255.175.536.299l.63.256.218.083c.407.159.814.339 1.235.533q.623.292 1.16.727a3.5 3.5 0 0 1 .862.99c.233.422.348.9.332 1.384.002.407-.084.809-.25 1.177a3 3 0 0 1-.734.976 3.6 3.6 0 0 1-1.146.693 4.2 4.2 0 0 1-1.527.263 5.4 5.4 0 0 1-2.239-.416 6.6 6.6 0 0 1-1.811-1.204m12.808-9.339h4.41a4.6 4.6 0 0 1 1.48.29c.432.164.829.413 1.166.734.333.333.592.734.76 1.177a4.4 4.4 0 0 1 .272 1.627 3.9 3.9 0 0 1-.597 2.285 3.25 3.25 0 0 1-1.636 1.28l2.334 3.33H74.63l-2.116-3.046h-1.839v3.047H68.79zm2.857 5.725h1.472q.373-.028.733-.138c.215-.07.415-.18.59-.326.175-.152.312-.344.4-.56a2 2 0 0 0 .15-.817 2 2 0 0 0-.15-.81 1.6 1.6 0 0 0-.4-.575 1.7 1.7 0 0 0-.59-.36 2.5 2.5 0 0 0-.733-.145h-2.442v3.786zm6.479-5.725h7.28V7.04h-5.333v2.561h5.265v1.953H80.06v2.229h5.332v1.973h-7.28zm15.517 10.71 4.464-10.71h1.642l4.464 10.71h-2.096l-.543-1.336H96.24l-.536 1.336zm3.392-3.247h3.772l-1.886-4.75zM99.463 2h1.628l-1.723 2.381h-1.154zm5.794 13.778V5.068h2.184l3.277 7.567 3.264-7.567h2.151v10.71h-1.941V9l-2.924 6.778h-1.167L107.197 9v6.792zm12.7-10.71h4.41a4.6 4.6 0 0 1 1.479.29 3.26 3.26 0 0 1 1.927 1.91c.189.522.281 1.073.271 1.628a4.6 4.6 0 0 1-.271 1.627 3.1 3.1 0 0 1-.767 1.17 3.3 3.3 0 0 1-1.16.692 5 5 0 0 1-1.479.277h-2.524v3.047h-1.886zm1.886 5.725h2.443q.37-.028.726-.138c.216-.07.419-.181.597-.326a1.55 1.55 0 0 0 .4-.56 2.3 2.3 0 0 0 0-1.627 1.7 1.7 0 0 0-.4-.575 1.8 1.8 0 0 0-.597-.36 2.4 2.4 0 0 0-.726-.145h-2.443zm9.512-5.725h1.676l4.457 10.71h-2.096l-.543-1.336h-5.299l-.542 1.336h-2.104zm-1.052 7.463h3.773l-1.886-4.75zm6.778-2.105a5.5 5.5 0 0 1 .414-2.146 5.7 5.7 0 0 1 1.153-1.758 5.4 5.4 0 0 1 1.703-1.191 5.57 5.57 0 0 1 4.519.104 7.2 7.2 0 0 1 1.791 1.273l-1.146 1.6a5.6 5.6 0 0 0-1.296-1.025 3.54 3.54 0 0 0-1.825-.43 3.27 3.27 0 0 0-2.429 1.053 3.7 3.7 0 0 0-.679 1.129c-.173.44-.26.91-.258 1.384-.001.475.089.945.265 1.385.167.415.411.794.719 1.114a3.25 3.25 0 0 0 1.072.762c.413.173.856.26 1.303.256.446.01.891-.056 1.316-.194.341-.105.663-.269.95-.484.234-.176.434-.394.59-.644a2 2 0 0 0 .258-.693h-2.443V9.984h4.526v.588a5.6 5.6 0 0 1-.434 2.264 4.9 4.9 0 0 1-1.135 1.658 4.8 4.8 0 0 1-1.695 1.05 5.6 5.6 0 0 1-1.981.352h-.054a4.85 4.85 0 0 1-2.035-.436 5.2 5.2 0 0 1-1.649-1.19 6 6 0 0 1-1.106-1.752 5.5 5.5 0 0 1-.414-2.09m11.399-.043a5.7 5.7 0 0 1 1.513-3.87 5.3 5.3 0 0 1 1.662-1.191 5.2 5.2 0 0 1 4.132 0c.626.28 1.193.682 1.669 1.184a5.6 5.6 0 0 1 1.112 1.738c.28.676.421 1.404.414 2.139a5.6 5.6 0 0 1-.407 2.125 5.5 5.5 0 0 1-1.113 1.759c-.475.5-1.039.904-1.662 1.19a4.95 4.95 0 0 1-4.125 0 5.2 5.2 0 0 1-1.669-1.19 5.7 5.7 0 0 1-1.113-1.759 5.5 5.5 0 0 1-.413-2.125m5.251 3.53a3.1 3.1 0 0 0 1.309-.283 3.3 3.3 0 0 0 1.052-.776 3.6 3.6 0 0 0 .678-1.114 3.6 3.6 0 0 0 .251-1.385 3.5 3.5 0 0 0-.541-1.923 3.4 3.4 0 0 0-1.494-1.296 3.17 3.17 0 0 0-2.619 0 3.6 3.6 0 0 0-1.058.761 3.5 3.5 0 0 0-.679 1.115 3.6 3.6 0 0 0-.257 1.343 3.6 3.6 0 0 0 .257 1.385c.155.412.385.79.679 1.114.3.326.66.59 1.058.776.428.2.894.3 1.364.29z"/></svg>